<?xml version="1.0" encoding="iso-8859-1"?>
<!-- Generator: Adobe Illustrator 19.0.0, SVG Export Plug-In . SVG Version: 6.00 Build 0)  -->
<svg version="1.1" id="Layer_1" xmlns="http://www.w3.org/2000/svg" xmlns:xlink="http://www.w3.org/1999/xlink" x="0px" y="0px"
	 viewBox="0 0 503.968 503.968" style="enable-background:new 0 0 503.968 503.968;" xml:space="preserve">
<g>
	<g>
		<path style="fill:#5B5B5B;" d="M224.561,341.811c0,59.527-48.263,107.789-107.789,107.789S8.982,401.337,8.982,341.811
			s48.263-107.789,107.789-107.789S224.561,282.284,224.561,341.811"/>
		<path style="fill:#5B5B5B;" d="M440.14,395.705c0,29.768-24.127,53.895-53.895,53.895s-53.895-24.127-53.895-53.895
			s24.127-53.895,53.895-53.895S440.14,365.938,440.14,395.705"/>
	</g>
	<g>
		<path style="fill:#B2B2B2;" d="M404.211,395.705c0,9.926-8.039,17.965-17.965,17.965c-9.926,0-17.965-8.039-17.965-17.965
			s8.039-17.965,17.965-17.965C396.171,377.741,404.211,385.78,404.211,395.705"/>
		<path style="fill:#B2B2B2;" d="M134.737,341.811c0,9.926-8.039,17.965-17.965,17.965s-17.965-8.039-17.965-17.965
			c0-9.926,8.039-17.965,17.965-17.965S134.737,331.885,134.737,341.811"/>
	</g>
	<path style="fill:#F26E5A;" d="M196.927,269.951h65.814l-33.469-149.585c-2.749-12.324-13.689-21.082-26.31-21.082H80.856
		c-14.884,0-26.956,12.072-26.956,26.965v128.135c17.704-12.764,39.379-20.363,62.877-20.363
		C148.655,234.021,177.219,247.926,196.927,269.951"/>
	<path style="fill:#C64533;" d="M490.926,269.951H196.948c17.112,19.079,27.612,44.212,27.612,71.86
		c0,16.052-3.602,31.223-9.89,44.912h118.488c4.285-25.483,26.39-44.912,53.086-44.912s48.802,19.429,53.086,44.912h19.707
		c4.931,0,9.441-2.785,11.65-7.204l31.888-90.723C506.906,280.137,500.609,269.951,490.926,269.951"/>
	<g>
		<path style="fill:#B2B2B2;" d="M116.772,287.916c-4.967,0-8.982-4.015-8.982-8.982v-44.912c0-4.967,4.015-8.982,8.982-8.982
			c4.967,0,8.982,4.015,8.982,8.982v44.912C125.754,283.901,121.739,287.916,116.772,287.916"/>
		<path style="fill:#B2B2B2;" d="M116.772,458.583c-4.967,0-8.982-4.015-8.982-8.982v-44.912c0-4.967,4.015-8.982,8.982-8.982
			c4.967,0,8.982,4.015,8.982,8.982V449.6C125.754,454.568,121.739,458.583,116.772,458.583"/>
		<path style="fill:#B2B2B2;" d="M224.561,350.793h-44.912c-4.967,0-8.982-4.015-8.982-8.982s4.015-8.982,8.982-8.982h44.912
			c4.967,0,8.982,4.015,8.982,8.982S229.529,350.793,224.561,350.793"/>
		<path style="fill:#B2B2B2;" d="M53.895,350.793H8.982c-4.967,0-8.982-4.015-8.982-8.982s4.015-8.982,8.982-8.982h44.912
			c4.967,0,8.982,4.015,8.982,8.982S58.862,350.793,53.895,350.793"/>
		<path style="fill:#B2B2B2;" d="M72.307,306.328c-2.3,0-4.599-0.88-6.351-2.632l-31.753-31.753c-3.512-3.512-3.512-9.198,0-12.701
			c3.503-3.512,9.189-3.512,12.701,0l31.753,31.753c3.512,3.512,3.512,9.189,0,12.701C76.906,305.448,74.606,306.328,72.307,306.328
			"/>
		<path style="fill:#B2B2B2;" d="M192.992,427.013c-2.299,0-4.599-0.88-6.351-2.632l-31.753-31.753
			c-3.512-3.512-3.512-9.198,0-12.701c3.503-3.512,9.189-3.512,12.701,0l31.753,31.753c3.512,3.512,3.512,9.189,0,12.701
			C197.591,426.133,195.291,427.013,192.992,427.013"/>
		<path style="fill:#B2B2B2;" d="M161.237,306.328c-2.299,0-4.599-0.88-6.351-2.632c-3.512-3.512-3.512-9.189,0-12.701
			l31.753-31.753c3.512-3.512,9.198-3.512,12.701,0c3.512,3.503,3.512,9.189,0,12.701l-31.753,31.753
			C165.836,305.448,163.536,306.328,161.237,306.328"/>
		<path style="fill:#B2B2B2;" d="M40.552,427.013c-2.3,0-4.599-0.88-6.351-2.632c-3.512-3.512-3.512-9.189,0-12.701l31.753-31.753
			c3.512-3.512,9.198-3.512,12.701,0c3.512,3.503,3.512,9.189,0,12.701l-31.753,31.753
			C45.151,426.133,42.852,427.013,40.552,427.013"/>
	</g>
	<path style="fill:#666666;" d="M359.298,269.951h53.895v-71.86h-53.895V269.951z"/>
	<g>
		<path style="fill:#B3B3B3;" d="M404.211,198.091h-35.93v-53.895l35.93,17.965V198.091z"/>
		<path style="fill:#B3B3B3;" d="M385.815,90.311c-1.554,0-3.126-0.404-4.563-1.249c-10.231-6.045-12.836-13.474-13.213-18.63
			c-0.404-5.614,1.419-14.165,12.423-23.049c3.862-3.126,9.512-2.515,12.638,1.347c3.108,3.862,2.506,9.521-1.356,12.629
			c-4.734,3.827-5.857,6.683-5.776,7.77c0.054,0.889,1.258,2.596,4.428,4.464c4.267,2.524,5.686,8.03,3.162,12.306
			C391.879,88.73,388.887,90.311,385.815,90.311"/>
		<path style="fill:#B3B3B3;" d="M386.114,117.249c-3.054,0-6.027-1.554-7.707-4.365c-2.56-4.258-1.168-9.773,3.081-12.315
			c3.431-2.066,4.707-3.907,4.761-4.86c0.054-1.033-1.114-3.692-5.803-7.177c-3.97-2.973-4.788-8.596-1.823-12.584
			c2.982-3.97,8.605-4.788,12.575-1.823c11.246,8.408,13.276,16.869,12.989,22.492c-0.278,5.309-2.829,12.98-13.465,19.348
			C389.276,116.836,387.686,117.249,386.114,117.249"/>
	</g>
	<path style="fill:#C64533;" d="M185.706,198.091h-77.914c-4.967,0-8.982-4.024-8.982-8.982v-44.912
		c0-4.958,4.015-8.982,8.982-8.982h65.078c4.015,0,7.536,2.659,8.641,6.512l12.827,44.912
		C195.982,192.379,191.67,198.091,185.706,198.091"/>
	<g>
		<path style="fill:#F26E5A;" d="M296.421,314.863h-35.93c-4.967,0-8.982-4.015-8.982-8.982c0-4.967,4.015-8.982,8.982-8.982h35.93
			c4.967,0,8.982,4.015,8.982,8.982C305.404,310.848,301.388,314.863,296.421,314.863"/>
		<path style="fill:#F26E5A;" d="M314.386,350.793h-53.895c-4.967,0-8.982-4.015-8.982-8.982s4.015-8.982,8.982-8.982h53.895
			c4.967,0,8.982,4.015,8.982,8.982S319.353,350.793,314.386,350.793"/>
	</g>
</g>
<g>
</g>
<g>
</g>
<g>
</g>
<g>
</g>
<g>
</g>
<g>
</g>
<g>
</g>
<g>
</g>
<g>
</g>
<g>
</g>
<g>
</g>
<g>
</g>
<g>
</g>
<g>
</g>
<g>
</g>
</svg>
